<svg width="32" height="32" viewBox="0 0 32 32" fill="none" xmlns="http://www.w3.org/2000/svg">
<path d="M24.6699 21.582C25.5983 21.9115 26.332 22.4355 26.8711 23.1543C27.4102 23.873 27.6797 24.6816 27.6797 25.5801C27.6797 27.0176 27.2305 28.1855 26.332 29.084C25.4336 29.9525 24.2956 30.3867 22.918 30.3867C21.5703 30.3867 20.4622 29.9525 19.5938 29.084C18.7253 28.2155 18.291 27.0924 18.291 25.7148V25.5352C17.0632 26.0143 15.8802 26.6432 14.7422 27.4219C13.6042 28.2005 12.6908 29.0391 12.002 29.9375H8.00391V12.5527C7.55469 12.7025 7.12044 12.7773 6.70117 12.7773C5.38346 12.7773 4.29036 12.3581 3.42188 11.5195C2.58333 10.651 2.16406 9.528 2.16406 8.15039C2.16406 6.83268 2.61328 5.75456 3.51172 4.91602C4.41016 4.04753 5.54818 3.61328 6.92578 3.61328C8.36328 3.61328 9.53125 4.0625 10.4297 4.96094C11.3581 5.82943 11.8223 6.96745 11.8223 8.375V26.1641C12.6309 25.2956 14.293 24.2624 16.8086 23.0645C18.4557 22.2858 19.6836 21.612 20.4922 21.043C21.3008 20.474 21.8548 19.9049 22.1543 19.3359C22.4538 18.737 22.6035 18.0182 22.6035 17.1797V4.0625H26.4219V17.3145C26.4219 18.2428 26.2721 19.0814 25.9727 19.8301C25.6732 20.5788 25.2389 21.1628 24.6699 21.582ZM4.63477 8.19531C4.63477 8.79427 4.82943 9.30339 5.21875 9.72266C5.63802 10.112 6.14714 10.3066 6.74609 10.3066C7.375 10.3066 7.88412 10.112 8.27344 9.72266C8.66276 9.30339 8.85742 8.79427 8.85742 8.19531C8.85742 7.59636 8.66276 7.10222 8.27344 6.71289C7.88412 6.29362 7.375 6.08399 6.74609 6.08399C6.14714 6.08399 5.63802 6.29362 5.21875 6.71289C4.82943 7.10222 4.63477 7.59636 4.63477 8.19531ZM22.918 27.916C23.5469 27.916 24.056 27.7214 24.4453 27.332C24.8346 26.9128 25.0293 26.4036 25.0293 25.8047C25.0293 25.2057 24.8346 24.7116 24.4453 24.3223C24.056 23.903 23.5469 23.6934 22.918 23.6934C22.319 23.6934 21.8249 23.903 21.4355 24.3223C21.0462 24.7116 20.8516 25.2057 20.8516 25.8047C20.8516 26.4036 21.0462 26.9128 21.4355 27.332C21.8249 27.7214 22.319 27.916 22.918 27.916Z" fill="#333333"/>
</svg>
