<svg width="16" height="16" viewBox="0 0 16 16" xmlns="http://www.w3.org/2000/svg">
    <path d="M12.1465 10.1914C12.5905 10.349 12.9414 10.5996 13.1992 10.9434C13.457 11.2871 13.5859 11.6738 13.5859 12.1035C13.5859 12.791 13.3711 13.3496 12.9414 13.7793C12.5117 14.1947 11.9674 14.4023 11.3086 14.4023C10.6641 14.4023 10.1341 14.1947 9.71875 13.7793C9.30339 13.3639 9.0957 12.8268 9.0957 12.168V12.082C8.50846 12.3112 7.94271 12.612 7.39844 12.9844C6.85417 13.3568 6.41732 13.7578 6.08789 14.1875H4.17578V5.87305C3.96094 5.94466 3.75326 5.98047 3.55273 5.98047C2.92253 5.98047 2.39974 5.77995 1.98438 5.37891C1.58333 4.96354 1.38281 4.42643 1.38281 3.76758C1.38281 3.13737 1.59766 2.62174 2.02734 2.2207C2.45703 1.80534 3.0013 1.59766 3.66016 1.59766C4.34766 1.59766 4.90625 1.8125 5.33594 2.24219C5.77995 2.65755 6.00195 3.20182 6.00195 3.875V12.3828C6.38867 11.9674 7.18359 11.4733 8.38672 10.9004C9.17448 10.528 9.76172 10.2057 10.1484 9.93359C10.5352 9.66146 10.8001 9.38932 10.9434 9.11719C11.0866 8.83073 11.1582 8.48698 11.1582 8.08594V1.8125H12.9844V8.15039C12.9844 8.5944 12.9128 8.99544 12.7695 9.35352C12.6263 9.71159 12.4186 9.99089 12.1465 10.1914ZM2.56445 3.78906C2.56445 4.07552 2.65755 4.31901 2.84375 4.51953C3.04427 4.70573 3.28776 4.79883 3.57422 4.79883C3.875 4.79883 4.11849 4.70573 4.30469 4.51953C4.49089 4.31901 4.58398 4.07552 4.58398 3.78906C4.58398 3.50261 4.49089 3.26628 4.30469 3.08008C4.11849 2.87956 3.875 2.7793 3.57422 2.7793C3.28776 2.7793 3.04427 2.87956 2.84375 3.08008C2.65755 3.26628 2.56445 3.50261 2.56445 3.78906ZM11.3086 13.2207C11.6094 13.2207 11.8529 13.1276 12.0391 12.9414C12.2253 12.7409 12.3184 12.4974 12.3184 12.2109C12.3184 11.9245 12.2253 11.6882 12.0391 11.502C11.8529 11.3014 11.6094 11.2012 11.3086 11.2012C11.0221 11.2012 10.7858 11.3014 10.5996 11.502C10.4134 11.6882 10.3203 11.9245 10.3203 12.2109C10.3203 12.4974 10.4134 12.7409 10.5996 12.9414C10.7858 13.1276 11.0221 13.2207 11.3086 13.2207Z"/>
</svg>
